Coordinates
version=1
nRows=8
nColumns=42
inDegrees=yes

Units are S.I. units (second, meters, Newtons, ...)
If the header above contains a line with 'inDegrees', this indicates whether rotational values are in degrees (yes) or radians (no).

endheader
time	pelvis_tilt	pelvis_list	pelvis_rotation	pelvis_tx	pelvis_ty	pelvis_tz	hip_flexion_r	hip_adduction_r	hip_rotation_r	knee_angle_r	knee_adduction_r	knee_angle_r_beta	ankle_angle_r	subtalar_angle_r	mtp_angle_r	hip_flexion_l	hip_adduction_l	hip_rotation_l	knee_angle_l	knee_adduction_l	knee_angle_l_beta	ankle_angle_l	subtalar_angle_l	mtp_angle_l	lumbar_extension	lumbar_bending	lumbar_rotation	arm_flex_r	arm_add_r	arm_rot_r	elbow_flex_r	pro_sup_r	wrist_flex_r	wrist_dev_r	arm_flex_l	arm_add_l	arm_rot_l	elbow_flex_l	pro_sup_l	wrist_flex_l	wrist_dev_l
      6.24000000	      4.48116470	     -9.43543589	     -2.45072785	     -0.37170888	      0.82913193	      0.31710994	     -0.47263240	      8.13760092	    -30.89602668	     20.19408270	     -3.33995752	      0.35245323	     21.26513809	     35.65530709	     -7.50003466	     23.21991360	    -18.60318375	    -17.84021121	     58.98446559	    -14.23263302	      1.02947313	     15.53637265	     16.56580746	     -7.50003466	    -29.37040203	      9.68432631	      1.15382323	     -8.39943434	     -2.68730117	    -10.84240490	    105.81612592	     90.00000001	      0.00000000	      0.00000000	      0.79728672	     -6.43778666	    -16.78539869	     51.71976248	     90.00000001	      0.00000000	      0.00000000
      6.25000000	      4.33456137	     -9.61878840	     -2.54327161	     -0.36964586	      0.82864738	      0.31661479	     -0.50402238	      8.23632087	    -30.87101324	     20.22029613	     -3.19998248	      0.35291074	     21.26428089	     35.33725252	     -7.50003433	     24.02752730	    -18.93706818	    -18.10302653	     57.65027187	    -13.69509398	      1.00618706	     15.66864984	     16.43728867	     -7.50003433	    -29.38028618	      9.81284529	      1.05504763	     -8.41020792	     -2.65075101	    -10.79866404	    105.78703329	     90.00000001	      0.00000000	      0.00000000	      0.95991937	     -6.60268692	    -16.76778537	     51.84217308	     90.00000001	      0.00000000	      0.00000000
      6.26000000	      4.34201060	     -9.64321426	     -2.74537035	     -0.36723597	      0.82842469	      0.31603392	     -0.76411348	      8.22894190	    -30.86946232	     20.01354964	     -3.33823937	      0.34930234	     21.70806959	     36.05462536	     -7.50003368	     24.42734423	    -18.97287742	    -19.58503129	     55.75349263	    -14.25506156	      0.97308202	     16.30930649	     17.78883397	     -7.50003368	    -29.49803652	      9.72325840	      1.09808095	     -8.55438578	     -2.54576762	    -10.70000213	    105.96119990	     90.00000001	      0.00000000	      0.00000000	      1.06982976	     -6.80170322	    -16.71748102	     51.69360208	     90.00000001	      0.00000000	      0.00000000
      6.27000000	      4.32828719	     -9.76406494	     -2.91634071	     -0.36480226	      0.82806884	      0.31531951	     -0.93994308	      8.22360901	    -30.91682982	     20.09120387	     -3.32173818	      0.35065766	     21.95333704	     36.15031682	     -7.50003235	     24.82949035	    -19.21124903	    -20.84068109	     53.93382349	    -14.44778987	      0.94132280	     16.49541618	     20.52186861	     -7.50003235	    -29.59606231	      9.75939744	      1.07521096	     -8.62114280	     -2.55473879	    -10.63999570	    105.98200793	     90.00000001	      0.00000000	      0.00000000	      1.18057815	     -6.92622644	    -16.56587552	     51.59737175	     90.00000001	      0.00000000	      0.00000000
      6.28000000	      4.15117527	    -10.00060877	     -3.08343790	     -0.36241798	      0.82751305	      0.31462443	     -0.96412894	      8.38857346	    -30.93521616	     20.06627942	     -3.28608480	      0.35022264	     21.98150668	     35.92859134	     -7.50003209	     25.38881491	    -19.50151154	    -21.03084507	     52.44950278	    -13.86341170	      0.91541651	     16.59172538	     20.47880527	     -7.50003209	    -29.49675275	      9.92513758	      1.04380977	     -8.62244975	     -2.55355344	    -10.62362038	    105.98186935	     90.00000001	      0.00000000	      0.00000000	      1.26226624	     -7.11146555	    -16.57572058	     51.68229209	     90.00000001	      0.00000000	      0.00000000
      6.29000000	      4.19692148	    -10.01000031	     -3.33619742	     -0.35984148	      0.82729854	      0.31372411	     -1.23063907	      8.32284980	    -30.70953676	     19.99952702	     -3.40063365	      0.34905760	     22.33156148	     36.21942533	     -7.50003034	     25.49341672	    -19.51713175	    -22.48712357	     50.53289346	    -14.20906936	      0.88196537	     16.71625804	     23.49610160	     -7.50003034	    -29.65645623	      9.79349404	      1.07692842	     -8.71498960	     -2.54498181	    -10.62201083	    106.01531216	     90.00000001	      0.00000000	      0.00000000	      1.35477111	     -7.25539002	    -16.46961288	     51.55255502	     90.00000001	      0.00000000	      0.00000000
      6.30000000	      4.06194093	    -10.18400283	     -3.51826920	     -0.35730702	      0.82682144	      0.31279767	     -1.28570467	      8.44704528	    -30.58292002	     19.99085480	     -3.47225166	      0.34890624	     22.39068332	     36.06653195	     -7.50003003	     25.81628529	    -19.63598484	    -22.59843247	     49.08493510	    -13.64908303	      0.85669373	     16.69272757	     23.51590914	     -7.50003003	    -29.58239789	      9.87498389	      1.05037245	     -8.74669301	     -2.55549266	    -10.62051071	    105.99990169	     90.00000001	      0.00000000	      0.00000000	      1.37346821	     -7.37818862	    -16.46999259	     51.59928889	     90.00000001	      0.00000000	      0.00000000
      6.31000000	      3.98030712	    -10.27152994	     -3.76598530	     -0.35469228	      0.82649950	      0.31171463	     -1.41067801	      8.48413423	    -30.35158684	     19.93970192	     -3.59798902	      0.34801345	     22.54198016	     36.06554150	     -7.50002974	     25.92541612	    -19.59440900	    -22.78815693	     47.61686113	    -13.20038322	      0.83107101	     16.54592515	     23.79549982	     -7.50002974	    -29.58865914	      9.87399188	      1.00931307	     -8.79947757	     -2.56268241	    -10.64385116	    105.97876283	     90.00000001	      0.00000000	      0.00000000	      1.40975507	     -7.49060696	    -16.47210860	     51.59966164	     90.00000001	      0.00000000	      0.00000000
